<?xml version="1.0" encoding="utf-8"?>
<!-- Generator: Adobe Illustrator 18.1.1, SVG Export Plug-In . SVG Version: 6.00 Build 0)  -->
<svg version="1.1" id="Layer_1" xmlns="http://www.w3.org/2000/svg" xmlns:xlink="http://www.w3.org/1999/xlink" x="0px" y="0px"
	 width="264px" height="59px" viewBox="0 0 264 59" enable-background="new 0 0 264 59" xml:space="preserve">
<path fill="#58595B" d="M29.3,1.6c-4.4,0-7.9,3.6-7.9,7.9c0,4.4,3.6,7.9,7.9,7.9c4.4,0,7.9-3.6,7.9-7.9C37.2,5.1,33.7,1.6,29.3,1.6z
	 M29.3,13c-1.8,0-3.2-1.4-3.2-3.2s1.4-3.2,3.2-3.2c1.8,0,3.2,1.4,3.2,3.2S31.1,13,29.3,13z"/>
<path fill="#58595B" d="M50.5,22.6c-4.4,0-7.9,3.6-7.9,7.9c0,4.4,3.6,7.9,7.9,7.9c4.4,0,7.9-3.6,7.9-7.9
	C58.5,26.2,54.9,22.6,50.5,22.6z M50.5,34.1c-1.8,0-3.2-1.4-3.2-3.2s1.4-3.2,3.2-3.2s3.2,1.4,3.2,3.2C53.8,32.6,52.3,34.1,50.5,34.1
	z"/>
<path fill="#58595B" d="M29.3,43.1c-4.4,0-7.9,3.6-7.9,7.9c0,4.4,3.6,7.9,7.9,7.9c4.4,0,7.9-3.6,7.9-7.9S33.7,43.1,29.3,43.1z
	 M29.3,54.6c-1.8,0-3.2-1.4-3.2-3.2s1.4-3.2,3.2-3.2c1.8,0,3.2,1.4,3.2,3.2C32.5,53.1,31.1,54.6,29.3,54.6z"/>
<path fill="#58595B" d="M8.7,22.6c-4.4,0-7.9,3.6-7.9,7.9c0,4.4,3.6,7.9,7.9,7.9c4.4,0,7.9-3.6,7.9-7.9S13.1,22.6,8.7,22.6z
	 M8.7,34.1c-1.8,0-3.2-1.4-3.2-3.2s1.4-3.2,3.2-3.2s3.2,1.4,3.2,3.2C11.9,32.6,10.4,34.1,8.7,34.1z"/>
<rect x="4.9" y="28.2" transform="matrix(-0.7071 -0.7071 0.7071 -0.7071 28.5475 72.7157)" fill="#58595B" width="48.9" height="4.5"/>
<rect x="4.4" y="28.3" transform="matrix(-0.7071 0.7071 -0.7071 -0.7071 70.8312 31.7139)" fill="#58595B" width="48.9" height="4.5"/>
<g>
	<path fill="#2B3990" d="M82.8,27.9V1.4h17.1V6H88.1v6.2h9.4v4.6h-9.4v6.4h11.8v4.7L82.8,27.9z"/>
	<path fill="#2B3990" d="M109.5,19c0,3.1,1.6,4.6,4.7,4.6s4.7-1.5,4.7-4.6V1.4h5.4v17.5c0,3.2-0.8,5.6-2.5,7.2
		c-1.7,1.5-4.2,2.3-7.6,2.3s-5.9-0.8-7.6-2.3s-2.5-3.9-2.5-7.2V1.4h5.4V19z"/>
	<path fill="#2B3990" d="M135.2,19v8.9h-5.4V1.4h10.3c6.2,0,9.4,2.9,9.4,8.7c0,3.5-1.3,6-3.9,7.6l3.8,10.1h-5.9l-3.1-8.9h-5.2V19z
		 M143.1,13.2c0.6-0.8,0.9-1.8,0.9-3.1s-0.3-2.3-1-3c-0.7-0.8-1.6-1.1-2.9-1.1h-4.9v8.4h5C141.5,14.4,142.4,14,143.1,13.2z"/>
	<path fill="#2B3990" d="M172.4,25c-1.7,2.2-4.5,3.3-8.5,3.3s-6.9-1.1-8.5-3.3c-1.7-2.2-2.5-5.6-2.5-10.3s0.8-8.2,2.5-10.4
		c1.6-2.3,4.5-3.4,8.5-3.4s6.9,1.1,8.5,3.4c1.7,2.3,2.5,5.7,2.5,10.4C174.8,19.4,174,22.8,172.4,25z M159.5,21.6
		c0.8,1.4,2.2,2,4.3,2s3.5-0.7,4.3-2c0.8-1.4,1.1-3.7,1.1-6.9s-0.4-5.5-1.2-7s-2.2-2.2-4.3-2.2s-3.5,0.7-4.3,2.2s-1.2,3.8-1.2,7
		C158.4,18,158.8,20.2,159.5,21.6z"/>
	<path fill="#3FB3E3" d="M179.4,1.4h10.4c2.8,0,4.8,0.6,6.2,1.7s2.1,2.9,2.1,5.4c0,1.5-0.2,2.7-0.7,3.5c-0.4,0.9-1.2,1.6-2.3,2.3
		c1.2,0.5,2,1.2,2.6,2.1s0.8,2.2,0.8,3.9c0,2.6-0.8,4.5-2.3,5.7s-3.6,1.9-6.4,1.9h-10.6V1.4H179.4z M189.6,6h-4.8v6.3h4.8
		c2,0,3-1.1,3-3.2S191.6,6,189.6,6z M189.7,16.8h-4.9v6.5h4.9c1.2,0,2-0.2,2.6-0.7s0.8-1.3,0.8-2.6C193.1,17.9,192,16.8,189.7,16.8z
		"/>
	<path fill="#3FB3E3" d="M218.2,27.9h-15.1V1.4h5.4v21.7h9.7L218.2,27.9L218.2,27.9z"/>
	<path fill="#3FB3E3" d="M226.5,19c0,3.1,1.6,4.6,4.7,4.6c3.1,0,4.7-1.5,4.7-4.6V1.4h5.4v17.5c0,3.2-0.8,5.6-2.5,7.2
		c-1.7,1.5-4.2,2.3-7.6,2.3c-3.4,0-5.9-0.8-7.6-2.3c-1.7-1.5-2.5-3.9-2.5-7.2V1.4h5.4L226.5,19L226.5,19z"/>
	<path fill="#3FB3E3" d="M246.9,27.9V1.4H264V6h-11.8v6.2h9.4v4.6h-9.4v6.4H264v4.7L246.9,27.9z"/>
	<path fill="#58595B" d="M82.8,31.7h10.4c2.8,0,4.8,0.6,6.2,1.7c1.4,1.1,2.1,2.9,2.1,5.4c0,1.5-0.2,2.7-0.7,3.5
		c-0.4,0.9-1.2,1.6-2.3,2.3c1.2,0.5,2,1.2,2.6,2.1c0.6,0.9,0.8,2.2,0.8,3.9c0,2.6-0.8,4.5-2.3,5.7s-3.6,1.9-6.4,1.9H82.8V31.7z
		 M92.9,36.3h-4.8v6.3h4.8c2,0,3-1.1,3-3.2C96,37.3,95,36.3,92.9,36.3z M93.1,47.1h-4.9v6.5h4.9c1.2,0,2-0.2,2.6-0.7
		s0.8-1.3,0.8-2.6C96.5,48.2,95.3,47.1,93.1,47.1z"/>
	<path fill="#58595B" d="M124.8,55.3c-1.7,2.2-4.5,3.3-8.5,3.3s-6.9-1.1-8.5-3.3c-1.7-2.2-2.5-5.6-2.5-10.3s0.8-8.2,2.5-10.4
		c1.6-2.3,4.5-3.4,8.5-3.4s6.9,1.1,8.5,3.4s2.5,5.7,2.5,10.4S126.5,53.2,124.8,55.3z M112,51.9c0.8,1.4,2.2,2,4.3,2
		c2.1,0,3.5-0.7,4.3-2c0.8-1.4,1.1-3.6,1.1-6.9c0-3.2-0.4-5.5-1.2-7c-0.8-1.5-2.2-2.2-4.3-2.2c-2.1,0-3.5,0.7-4.3,2.2
		s-1.2,3.8-1.2,7C110.9,48.3,111.3,50.6,112,51.9z"/>
	<path fill="#58595B" d="M150.3,55.3c-1.7,2.2-4.5,3.3-8.5,3.3s-6.9-1.1-8.5-3.3c-1.7-2.2-2.5-5.6-2.5-10.3s0.8-8.2,2.5-10.4
		c1.6-2.3,4.5-3.4,8.5-3.4s6.9,1.1,8.5,3.4s2.5,5.7,2.5,10.4S151.9,53.2,150.3,55.3z M137.4,51.9c0.8,1.4,2.2,2,4.3,2s3.5-0.7,4.3-2
		c0.8-1.4,1.1-3.6,1.1-6.9c0-3.2-0.4-5.5-1.2-7s-2.2-2.2-4.3-2.2s-3.5,0.7-4.3,2.2s-1.2,3.8-1.2,7C136.3,48.3,136.7,50.6,137.4,51.9
		z"/>
	<path fill="#58595B" d="M162.7,58.2h-5.4V31.7h5.4v11.7l3.6-0.4l4.4-11.3h6.1L171,45l5.9,13.2h-6.2l-4.4-10.6l-3.6,0.4V58.2z"/>
	<path fill="#58595B" d="M188.6,35.9c-2.8,0-4.2,0.9-4.2,2.8c0,0.8,0.4,1.5,1.1,1.9c0.7,0.4,2.3,1.1,4.9,1.9
		c2.6,0.8,4.4,1.8,5.4,2.8c1,1.1,1.6,2.7,1.6,4.9c0,2.8-0.8,4.9-2.5,6.3c-1.7,1.4-3.9,2.1-6.6,2.1c-2,0-4.5-0.3-7.4-0.9l-1.4-0.3
		l0.5-4.2c3.5,0.5,6.1,0.7,8,0.7c2.8,0,4.1-1.1,4.1-3.4c0-0.8-0.3-1.5-1-1.9c-0.6-0.5-1.9-1-3.8-1.5c-3-0.9-5.1-1.9-6.4-3.1
		c-1.2-1.2-1.9-2.8-1.9-4.9c0-2.7,0.8-4.6,2.4-5.9c1.6-1.3,3.8-1.9,6.6-1.9c1.9,0,4.4,0.3,7.3,0.8l1.4,0.3l-0.4,4.2
		C192.7,36.1,190.1,35.9,188.6,35.9z"/>
</g>
<text transform="matrix(1 0 0 1 31.2507 -37.8672)" fill="#2B3990" font-family="'TitilliumWeb-Bold'" font-size="36">EURO</text>
<text transform="matrix(1 0 0 1 120.5507 -37.8672)" fill="#3FB3E3" font-family="'TitilliumWeb-Bold'" font-size="36">BLUE</text>
<text transform="matrix(1 0 0 1 31.2507 -9.8672)" fill="#58595B" font-family="'TitilliumWeb-Bold'" font-size="36">BOOKS</text>
<path fill="#3FB3E3" d="M-41.1,60c-96.8,0-175.3,78.5-175.3,175.3s78.5,175.3,175.3,175.3h175.3V235.3C134.3,138.5,55.8,60-41.1,60z
	"/>
<g display="none">
	<g display="inline">
		<path fill="#00734D" d="M28.8,17.3c-3.9,0-7.1-3.2-7.1-7.1S24.9,3,28.8,3c3.9,0,7.1,3.2,7.1,7.1S32.8,17.3,28.8,17.3z M28.8,3.8
			c-3.5,0-6.4,2.9-6.4,6.4s2.9,6.4,6.4,6.4c3.5,0,6.4-2.9,6.4-6.4S32.4,3.8,28.8,3.8z"/>
		<path fill="#00734D" d="M34.4,13.3H23.3l5.5-9.6L34.4,13.3z M24.6,12.6h8.5l-4.2-7.3L24.6,12.6z"/>
	</g>
	<g display="inline">
		<path fill="#00734D" d="M10,37.6c-3.9,0-7.1-3.2-7.1-7.1S6,23.3,10,23.3s7.1,3.2,7.1,7.1S13.9,37.6,10,37.6z M10,24.1
			c-3.5,0-6.4,2.9-6.4,6.4c0,3.5,2.9,6.4,6.4,6.4s6.4-2.9,6.4-6.4C16.3,26.9,13.5,24.1,10,24.1z"/>
		<g>
			<path fill="#00734D" d="M5.3,33.5v-6.2l5.3,3.1L5.3,33.5z M6,28.7v3.6l3.1-1.8L6,28.7z"/>
			<path fill="#00734D" d="M14.6,33.5l-5.3-3.1l5.3-3.1V33.5z M10.7,30.4l3.1,1.8v-3.6L10.7,30.4z"/>
		</g>
	</g>
	<g display="inline">
		<path fill="#00734D" d="M28.8,54.1c-3.9,0-7.1-3.2-7.1-7.1c0-3.9,3.2-7.1,7.1-7.1c3.9,0,7.1,3.2,7.1,7.1
			C36,50.9,32.8,54.1,28.8,54.1z M28.8,40.6c-3.5,0-6.4,2.9-6.4,6.4s2.9,6.4,6.4,6.4c3.5,0,6.4-2.9,6.4-6.4S32.4,40.6,28.8,40.6z"/>
		<path fill="#00734D" d="M27.1,53.9c-2.9-1.6-3.2-3.8-2.5-5.2c0.6-1.4,2.3-2.5,4.4-1.8l-0.2,0.7c-1.7-0.6-3,0.3-3.5,1.4
			c-0.5,1.1-0.2,2.9,2.2,4.3L27.1,53.9z"/>
		<path fill="#00734D" d="M29.2,47.6c-0.1,0-0.3,0-0.5,0l0.2-0.7c1.5,0.2,2.6-0.9,2.9-2.1c0.3-1.3-0.2-3.1-2.7-4.1l0.3-0.7
			c2.9,1.2,3.5,3.4,3.1,5C32.1,46.5,30.7,47.6,29.2,47.6z"/>
	</g>
	<g display="inline">
		<path fill="#00734D" d="M50.5,37.6c-3.9,0-7.1-3.2-7.1-7.1s3.2-7.1,7.1-7.1s7.1,3.2,7.1,7.1S54.4,37.6,50.5,37.6z M50.5,24.1
			c-3.5,0-6.4,2.9-6.4,6.4c0,3.5,2.9,6.4,6.4,6.4s6.4-2.9,6.4-6.4C56.9,26.9,54,24.1,50.5,24.1z"/>
		<path fill="#00734D" d="M56.4,31.6h-12l6-4.6L56.4,31.6z M46.7,30.9h7.5L50.5,28L46.7,30.9z"/>
		<rect x="50.1" y="31.2" fill="#00734D" width="0.8" height="4.3"/>
		<g>
			<polygon fill="#00734D" points="45,29.9 44.6,29.3 50.5,24.9 50.8,25.7 			"/>
			<polygon fill="#00734D" points="55.9,29.9 50.4,25.7 50.5,24.9 56.3,29.3 			"/>
		</g>
	</g>
</g>
<ellipse fill="#00734D" cx="-21.4" cy="10.2" rx="1.6" ry="2.8"/>
</svg>
